<?xml version="1.0" encoding="utf-8"?>
<!-- Generator: Adobe Illustrator 16.0.0, SVG Export Plug-In . SVG Version: 6.00 Build 0)  -->
<!DOCTYPE svg PUBLIC "-//W3C//DTD SVG 1.1//EN" "http://www.w3.org/Graphics/SVG/1.1/DTD/svg11.dtd">
<svg version="1.1" id="Layer_1" xmlns="http://www.w3.org/2000/svg" xmlns:xlink="http://www.w3.org/1999/xlink" x="0px" y="0px"
	 width="512px" height="512px" viewBox="0 0 512 512" enable-background="new 0 0 512 512" xml:space="preserve">
<rect fill="#FFFFFF" width="512" height="512"/>
<g opacity="0.35">
	<path fill="#023334" stroke="#000000" stroke-width="0.5" stroke-miterlimit="10" d="M358.481,239.315l26.18-21.401l-34.289-42.002
		c0,0-32.44-32.438-72.257-8.848l-39.072,21.385c0,0-5.653,3.809-8.112-1.479c0,0-6.266-7.495-23.597-4.665l1.479-68.142
		c0,0,14.008-4.974,4.604-16.775c0,0-6.63-5.897-14.56,0c0,0-8.845,7.192,2.95,16.228l-1.289,70.592c0,0-8.48,1.104-14.563,7.927
		l-39.63-15.672c0,0-3.318-12.573-14.192-9.418c-10.872,3.155-9.583,18.822,5.533,18.451c0,0,2.944-0.553,7.001-3.315l36.312,14.928
		c0,0-9.216,10.137-3.871,21.014c0,0,1.474,2.397-1.844,3.5c-3.315,1.108-44.79,23.961-44.79,23.961S92.69,269.18,119.967,309.73
		c27.282,40.551,54.929,73.36,54.929,73.36s26.911,39.813,78.525,12.534c51.606-27.279,105.555-59.005,105.555-59.005
		l-20.028-29.102l-79.629,43.873c0,0-21.754,7.738-30.6-7.748c-8.848-15.481-46.816-62.299-46.816-62.299
		s-11.431-17.694,6.266-26.543c17.696-8.848,111.696-59.724,111.696-59.724s17.328-10.322,30.971,6.268
		C344.469,217.936,358.481,239.315,358.481,239.315z"/>
	<g>
		<path fill="#F9AD3B" d="M177.369,302.415l-16.318,4.401l2.451-9.047C163.502,297.77,171.418,295.76,177.369,302.415z"/>
		<path fill="#646561" d="M162.497,298.104l-4.158,16.015l-6.425-6.571C151.914,307.547,154.033,299.934,162.497,298.104z"/>
		<path fill="#0F84A8" d="M151.603,308.689l11.775,11.798l-8.943,2.355C154.435,322.843,148.829,317.055,151.603,308.689z"/>
		<path fill="#84C342" d="M155.325,323.463l15.691-4.356l-2.271,8.716C168.745,327.822,161.104,329.813,155.325,323.463z"/>
		<path fill="#EE5C82" d="M169.593,327.415l4.258-16.141l6.538,6.518C180.389,317.792,178.197,325.582,169.593,327.415z"/>
		<path fill="#7B519F" d="M180.827,317.103l-11.661-11.526l8.66-2.498C177.826,303.078,183.631,308.65,180.827,317.103z"/>
	</g>
	<g>
		<path fill="#F9AD3B" d="M202.172,334.649l-16.314,4.399l2.445-9.048C188.303,330.001,196.219,327.994,202.172,334.649z"/>
		<path fill="#646561" d="M187.303,330.338l-4.161,16.011l-6.425-6.571C176.717,339.777,178.837,332.165,187.303,330.338z"/>
		<path fill="#0F84A8" d="M176.406,340.92l11.776,11.801l-8.944,2.351C179.238,355.071,173.636,349.285,176.406,340.92z"/>
		<path fill="#84C342" d="M180.128,355.697l15.691-4.365l-2.268,8.721C193.552,360.053,185.908,362.038,180.128,355.697z"/>
		<path fill="#EE5C82" d="M194.399,359.641l4.258-16.135l6.538,6.521C205.195,350.026,203,357.813,194.399,359.641z"/>
		<path fill="#7B519F" d="M205.63,349.331l-11.658-11.526l8.66-2.492C202.632,335.313,208.435,340.878,205.63,349.331z"/>
	</g>
</g>
<g>
	<path fill="#023334" stroke="#000000" stroke-width="1.5" stroke-miterlimit="10" d="M50.763,335.052
		c-1.72,0-3.784,2.938-3.784-55.066c0-76.413,3.578-73.629,4.747-73.629h6.329c2.683,0,3.646,0,7.017,10.364
		c6.466,19.954,6.879,31.246,8.255,31.246c1.032,0,1.445-11.292,8.737-31.246c3.852-10.519,4.884-10.364,7.567-10.364h5.366
		c1.169,0,4.747-2.784,4.747,73.629c0,58.005-2.064,55.066-3.784,55.066h-8.806c-0.825,0-2.476,0.464-2.476-2.32
		c0-2.165,3.921-30.009,3.921-70.38c0-3.249,0.207-22.274-2.063-22.274c-1.995,0-4.609,15.313-5.297,19.025
		c-5.778,31.71-3.439,46.25-8.049,46.25c-5.778,0-3.508-14.54-9.631-46.25c-0.688-3.403-2.958-19.025-5.09-19.025
		c-2.271,0-2.202,19.025-2.202,22.274c0,40.371,4.334,68.215,4.334,70.38c0,2.784-1.651,2.32-2.477,2.32H50.763z"/>
	<path fill="#023334" stroke="#000000" stroke-width="1.5" stroke-miterlimit="10" d="M104.627,285.399
		c0-24.904,5.297-51.664,17.267-51.664s17.267,26.76,17.267,51.664c0,36.35-9.356,51.973-17.267,51.973
		S104.627,321.749,104.627,285.399z M130.631,281.532c0-12.221-1.926-29.545-8.737-29.545s-8.737,17.324-8.737,29.545
		c0,12.374,1.789,30.008,8.737,30.008S130.631,293.906,130.631,281.532z"/>
	<path fill="#023334" stroke="#000000" stroke-width="1.5" stroke-miterlimit="10" d="M171.768,236.056c2.408,0,2.889,0,2.889,8.817
		c0,64.965-14.928,92.5-17.198,92.5c-1.582,0-15.41-25.987-15.41-96.521c0-4.486,0.275-4.795,2.133-4.795h5.297
		c0.963,0,2.958-0.773,2.958,2.475c0,3.558-0.344,6.806-0.344,13.612c0,38.052,5.021,53.056,6.604,53.056
		c2.407,0,6.879-21.191,6.879-51.354c0-5.414-0.413-9.745-0.413-14.54c0-3.558,0.688-3.248,2.064-3.248H171.768z"/>
	<path fill="#023334" stroke="#000000" stroke-width="1.5" stroke-miterlimit="10" d="M182.912,335.052
		c-3.371,0-3.646,3.248-3.646-51.199c0-52.902,1.101-47.797,3.371-47.797h3.784c2.889,0,2.958,0.464,2.958,2.32
		c0,5.723-0.825,11.446-0.825,28.307c0,38.979,2.683,62.955,2.683,64.348c0,4.949-2.063,4.021-3.646,4.021H182.912z"/>
	<path fill="#023334" stroke="#000000" stroke-width="1.5" stroke-miterlimit="10" d="M195.844,289.73
		c0-37.434,9.219-55.995,18.437-55.995c7.567,0,13.965,9.59,13.965,27.843c0,33.256-22.151,26.296-22.151,42.382
		c0,7.271,5.228,12.53,8.667,12.53c11.282,0,11.282-19.336,12.245-19.336c1.032,0,1.238,8.044,1.238,9.281
		c0,19.645-6.742,30.937-14.997,30.937C200.935,337.372,195.844,314.479,195.844,289.73z M205.131,274.417
		c0,1.701,0.344,3.402,1.238,3.402c0.826,0,13.346-6.188,13.346-14.076c0-7.579-3.165-11.756-5.778-11.756
		C208.364,251.987,205.131,265.445,205.131,274.417z"/>
	<path fill="#023334" stroke="#000000" stroke-width="1.5" stroke-miterlimit="10" d="M256.794,335.052
		c-3.646,0.31-2.546-5.104-2.89-36.505c0-20.728,3.783-92.19,5.778-92.19h10.938c0.481,0,1.307,0.31,1.307,3.094
		c0,3.403-7.979,36.66-7.979,79.352c0,21.346,4.127,26.45,7.91,26.45c6.329,0,10.182-13.147,11.902-13.147
		c1.307,0,3.989,29.854,3.989,30.627c0,3.094-2.133,2.32-2.958,2.32H256.794z"/>
	<path fill="#023334" stroke="#000000" stroke-width="1.5" stroke-miterlimit="10" d="M306.873,270.704
		c1.996-0.773,3.578-1.547,3.578-6.651c0-7.889-3.646-12.065-6.673-12.065c-7.017,0-5.985,13.303-7.499,13.303
		c-2.201,0-4.608-6.032-4.608-12.684c0-11.446,5.71-18.871,12.038-18.871c2.202,0,11.626-0.155,15.135,21.5
		c1.444,8.971,1.582,54.757,1.582,60.171c0,6.806,0.551,10.828,0.551,16.087c0,3.248-6.467,3.558-12.59,3.558
		c-16.578,0-17.748-19.181-17.748-28.462C290.639,287.101,299.169,273.644,306.873,270.704z M311.139,297.773
		c0-5.414,0.413-11.91-2.89-11.91c-4.059,0-8.323,7.733-8.323,17.169c0,8.662,3.37,13.767,7.017,13.767
		c4.059,0,4.196-4.641,4.196-12.22V297.773z"/>
	<path fill="#023334" stroke="#000000" stroke-width="1.5" stroke-miterlimit="10" d="M348.562,335.052
		c-0.895,0-2.408,0.464-2.408-2.475c0-1.547,3.509-22.12,3.509-53.521c0-10.982-0.413-24.749-5.091-24.749
		c-2.614,0-7.98,3.867-7.98,34.494c0,18.562,1.995,42.383,1.995,44.239c0,2.165-1.169,2.011-1.856,2.011h-5.849
		c-2.545,0-3.576,2.63-3.576-38.206c0-70.071,2.407-65.74,7.705-65.74c2.407,0,4.884-0.773,4.884,2.784
		c0,1.547-0.619,3.403-0.619,5.569c0,1.547,0.344,2.939,1.032,2.939c1.169,0,4.333-6.342,8.736-6.342
		c1.927,0,9.906,0.619,9.906,41.3c0,60.79-2.133,57.696-4.472,57.696H348.562z"/>
	<path fill="#023334" stroke="#000000" stroke-width="1.5" stroke-miterlimit="10" d="M378.004,335.052
		c-7.705,0-14.447-15.313-14.447-46.56c0-35.422,10.457-54.757,16.511-54.757c1.444,0,2.958,3.558,3.921,3.558
		c1.376,0,1.582-5.569,1.582-8.043c0-12.529-1.72-18.098-1.72-23.976c0-2.166,1.72-2.166,2.408-2.166h7.154
		c3.096,0,2.82,69.297,2.82,76.567c0,3.558,0.275,55.376-2.133,55.376H378.004z M386.946,277.511
		c0-27.225-1.857-29.081-4.402-29.081c-2.958,0-9.7,8.662-9.7,36.814c0,10.673,1.789,27.224,7.637,27.224
		C387.91,312.468,386.946,288.647,386.946,277.511z"/>
	<path fill="#023334" stroke="#000000" stroke-width="1.5" stroke-miterlimit="10" d="M400.842,289.73
		c0-37.434,9.219-55.995,18.437-55.995c7.567,0,13.965,9.59,13.965,27.843c0,33.256-22.15,26.296-22.15,42.382
		c0,7.271,5.228,12.53,8.667,12.53c11.282,0,11.282-19.336,12.246-19.336c1.031,0,1.237,8.044,1.237,9.281
		c0,19.645-6.741,30.937-14.996,30.937C405.933,337.372,400.842,314.479,400.842,289.73z M410.129,274.417
		c0,1.701,0.344,3.402,1.238,3.402c0.826,0,13.346-6.188,13.346-14.076c0-7.579-3.164-11.756-5.778-11.756
		C413.362,251.987,410.129,265.445,410.129,274.417z"/>
	<path fill="#023334" stroke="#000000" stroke-width="1.5" stroke-miterlimit="10" d="M442.53,335.052
		c-2.546,0-3.783,4.795-3.783-46.404c0-42.847-0.551-52.438,1.376-52.592h5.71c1.031,0,2.27-0.773,2.338,2.166
		c0.138,2.32,0.275,5.259,1.651,5.259c1.032,0,2.201-2.475,3.646-4.95c1.445-2.32,3.096-4.795,4.953-4.795
		c3.509,0,6.397,6.806,6.397,15.159c0,10.828-3.921,17.324-5.984,17.324c-0.825,0,0.138-10.363-4.609-10.363
		c-5.778,0-6.19,20.882-6.19,30.163c0,30.781,2.339,43.775,2.339,46.56c-0.069,2.475-1.583,2.475-2.339,2.475H442.53z"/>
</g>
<path fill="#FFFFFF" stroke="#221F1F" stroke-width="1.5" stroke-miterlimit="10" d="M46.469,277.383c0,0-0.533,20.621,0.303,31.529
	h402.406c0,0-0.432-20.215-0.376-31.529H46.469z"/>
<text transform="matrix(1 0 0 1 145.9639 300.6309)" fill="#221F1F" font-family="'Tangerine-Bold'" font-size="30.2983" letter-spacing="5">your home cinema</text>
<line fill="none" stroke="#221F1F" stroke-width="1.5" stroke-miterlimit="10" x1="46.395" y1="281.029" x2="217.749" y2="281.029"/>
<line fill="none" stroke="#221F1F" stroke-width="1.5" stroke-miterlimit="10" x1="152.914" y1="304.67" x2="449.178" y2="304.67"/>
<ellipse transform="matrix(0.9966 0.0829 -0.0829 0.9966 18.8569 -14.6458)" opacity="0.6" fill="#023334" stroke="#000000" stroke-width="1.5" stroke-miterlimit="10" cx="185.856" cy="219.834" rx="5.757" ry="8.484"/>
</svg>
